<?xml version="1.0" encoding="utf-8"?><!-- Uploaded to: SVG Repo, www.svgrepo.com, Generator: SVG Repo Mixer Tools -->
<svg fill="#000000" width="800px" height="800px" viewBox="0 0 24 24" id="tablet-handphone" data-name="Flat Line" xmlns="http://www.w3.org/2000/svg" class="icon flat-line"><path id="secondary" d="M11,21h9a1,1,0,0,0,1-1V4a1,1,0,0,0-1-1H6A1,1,0,0,0,5,4V9h6a1,1,0,0,1,1,1V20A1,1,0,0,1,11,21Z" style="fill: rgb(44, 169, 188); stroke-width: 2;"></path><path id="primary" d="M12,20V10a1,1,0,0,0-1-1H5V4A1,1,0,0,1,6,3H20a1,1,0,0,1,1,1V20a1,1,0,0,1-1,1H11A1,1,0,0,0,12,20ZM3,10V20a1,1,0,0,0,1,1h7a1,1,0,0,0,1-1V10a1,1,0,0,0-1-1H4A1,1,0,0,0,3,10ZM6,9H9l-.5,2h-2Z" style="fill: none; stroke: rgb(0, 0, 0); stroke-linecap: round; stroke-linejoin: round; stroke-width: 2;"></path></svg>