<?xml version="1.0" encoding="UTF-8"?>
<!DOCTYPE svg PUBLIC "-//W3C//DTD SVG 1.1//EN" "http://www.w3.org/Graphics/SVG/1.1/DTD/svg11.dtd">
<!-- Creator: CorelDRAW -->
<svg xmlns="http://www.w3.org/2000/svg" xml:space="preserve" width="2048px" height="2048px" style="shape-rendering:geometricPrecision; text-rendering:geometricPrecision; image-rendering:optimizeQuality; fill-rule:evenodd; clip-rule:evenodd"
viewBox="0 0 2048 2048"
 xmlns:xlink="http://www.w3.org/1999/xlink">
 <defs>
  <style type="text/css">
   <![CDATA[
    .fil2 {fill:none}
    .fil6 {fill:#00BDF2}
    .fil5 {fill:#4DC8F4}
    .fil8 {fill:gray}
    .fil4 {fill:#999999}
    .fil3 {fill:#B3B3B3}
    .fil1 {fill:#D81B60}
    .fil0 {fill:#EC407A}
    .fil7 {fill:#FFFFFE}
   ]]>
  </style>
   <clipPath id="id0">
    <path d="M1024 -0.0011811c565.541,0 1024,458.461 1024,1024 0,565.541 -458.461,1024 -1024,1024 -565.541,0 -1024,-458.461 -1024,-1024 0,-565.541 458.461,-1024 1024,-1024z"/>
   </clipPath>
 </defs>
 <g id="Layer_x0020_1">
  <metadata id="CorelCorpID_0Corel-Layer"/>
  <path class="fil0" d="M1024 -0.0011811c565.541,0 1024,458.461 1024,1024 0,565.541 -458.461,1024 -1024,1024 -565.541,0 -1024,-458.461 -1024,-1024 0,-565.541 458.461,-1024 1024,-1024z"/>
  <g style="clip-path:url(#id0)">
   <g id="_452512400">
    <path id="_4525286241" class="fil1" d="M1471.74 463.378c-0.303544,-0.303544 -0.609449,-0.602363 -0.920079,-0.897638 -0.309449,-0.295276 -0.623623,-0.588189 -0.940158,-0.876379 -0.316536,-0.288189 -0.636615,-0.571654 -0.960237,-0.851575 -0.323622,-0.279921 -0.648426,-0.5563 -0.979135,-0.827953 -0.329528,-0.271654 -0.662599,-0.539764 -0.999213,-0.804331 -0.336614,-0.263386 -0.675591,-0.522048 -1.01811,-0.778347 -0.34252,-0.255118 -0.687402,-0.507874 -1.03583,-0.754725 -0.318898,-0.226772 -0.640158,-0.447638 -0.96378,-0.666142m-0.179528 -0.120473c-0.324803,-0.218504 -0.650788,-0.432284 -0.981497,-0.643701 -0.360236,-0.230315 -0.722835,-0.454725 -1.0878,-0.675591 -0.364961,-0.220866 -0.733465,-0.437008 -1.10433,-0.649607 -0.370866,-0.211417 -0.744095,-0.419292 -1.12087,-0.62126 -0.375591,-0.201969 -0.753544,-0.399213 -1.13504,-0.592914 -0.381496,-0.19252 -0.765355,-0.382677 -1.15158,-0.565748 -0.38504,-0.184252 -0.773623,-0.361418 -1.16457,-0.536221 -0.390945,-0.173622 -0.784253,-0.34252 -1.17992,-0.506693 -0.388583,-0.161811 -0.779528,-0.318898 -1.17284,-0.47126 -0.393307,-0.152362 -0.787796,-0.3 -1.18465,-0.442914 -0.396851,-0.142913 -0.796064,-0.279921 -1.19646,-0.414567 -0.400394,-0.133465 -0.80315,-0.263386 -1.20709,-0.387402 -0.403937,-0.124016 -0.810237,-0.243307 -1.21772,-0.357874 -0.407481,-0.114567 -0.816142,-0.22441 -1.22717,-0.329528 -0.411024,-0.105118 -0.823229,-0.204331 -1.23662,-0.3 -0.414567,-0.0944883 -0.830316,-0.184252 -1.24725,-0.269292 -0.416929,-0.0850394 -0.833859,-0.164173 -1.25433,-0.239764 -0.419292,-0.0744095 -0.840946,-0.144095 -1.26378,-0.209055 -0.422835,-0.0637796 -0.84567,-0.124016 -1.27087,-0.177165 -0.425197,-0.0543308 -0.851575,-0.102756 -1.27913,-0.146457 -0.427559,-0.0437008 -0.8563,-0.0814961 -1.28622,-0.114567 -0.429922,-0.0330709 -0.859843,-0.0602363 -1.29213,-0.0826772 -0.431103,-0.0212599 -0.864568,-0.0377953 -1.29921,-0.0496063 -0.433465,-0.0106299 -0.868111,-0.0165354 -1.30394,-0.0165354m-821.763 0c-0.435827,0 -0.870473,0.00590552 -1.30512,0.0165354 -0.433465,0.0106299 -0.865749,0.0271654 -1.29803,0.0496063 -0.432284,0.022441 -0.863386,0.0496063 -1.29331,0.0826772 -0.429922,0.0330709 -0.857481,0.0708662 -1.28504,0.114567 -0.427559,0.0437008 -0.855119,0.0921261 -1.27913,0.146457 -0.425197,0.0543308 -0.850394,0.113386 -1.27205,0.177165 -0.422835,0.0649607 -0.843308,0.134646 -1.2626,0.209055 -0.419292,0.0744095 -0.838583,0.154725 -1.25551,0.239764 -0.416929,0.0850394 -0.832678,0.174803 -1.24606,0.269292 -0.413386,0.0944883 -0.826772,0.194882 -1.23662,0.3 -0.411024,0.105118 -0.819686,0.214961 -1.22717,0.329528 -0.407481,0.114567 -0.81378,0.233858 -1.21772,0.357874 -0.403937,0.124016 -0.806694,0.253937 -1.20709,0.387402 -0.400394,0.133465 -0.799607,0.271654 -1.19646,0.414567 -0.396851,0.142913 -0.791339,0.290551 -1.18465,0.442914 -0.392126,0.152362 -0.783071,0.309449 -1.17284,0.47126 -0.39567,0.164173 -0.788977,0.333071 -1.17992,0.506693 -0.390945,0.173622 -0.779528,0.35315 -1.16575,0.536221 -0.386221,0.183071 -0.770079,0.372048 -1.15039,0.565748 -0.381496,0.193701 -0.759449,0.389764 -1.13622,0.592914 -0.375591,0.201969 -0.748819,0.409843 -1.11969,0.62126 -0.370866,0.211417 -0.739371,0.42874 -1.10433,0.649607 -0.364961,0.220866 -0.72756,0.446457 -1.0878,0.675591 -0.360236,0.230315 -0.71693,0.462992 -1.07126,0.701575 -0.354331,0.238583 -0.705119,0.48189 -1.05354,0.728741 -0.348425,0.246851 -0.693308,0.498426 -1.03583,0.754725 -0.34252,0.255118 -0.681497,0.51378 -1.01811,0.778347 -0.336614,0.263386 -0.669686,0.531496 -0.999213,0.804331 -0.329528,0.271654 -0.655512,0.548032 -0.979135,0.827953 -0.323622,0.279921 -0.643701,0.563386 -0.960237,0.851575 -0.316536,0.287008 -0.629528,0.581103 -0.940158,0.876379 -0.31063,0.296457 -0.616536,0.594095 -0.920079,0.897638 -0.3,0.3 -0.595276,0.602363 -0.88819,0.90945 -0.291733,0.307087 -0.579922,0.616536 -0.864568,0.930709 -0.284646,0.314173 -0.565748,0.630709 -0.843308,0.950788 -0.277559,0.320079 -0.550394,0.644882 -0.819686,0.972048 -0.269292,0.327166 -0.53504,0.657875 -0.796064,0.990946 -0.261024,0.334252 -0.518504,0.670867 -0.772442,1.01102 -0.252756,0.340158 -0.501969,0.682678 -0.747638,1.02992 -0.244488,0.346063 -0.485433,0.696851 -0.722835,1.04882 -0.236221,0.351969 -0.470079,0.707481 -0.698032,1.06654 -0.227953,0.357874 -0.452363,0.719292 -0.670867,1.08307 -0.219685,0.36378 -0.435827,0.732284 -0.646063,1.10197 -0.210236,0.369685 -0.416929,0.742914 -0.618898,1.11732 -0.200788,0.375591 -0.399213,0.754725 -0.591733,1.13504 -0.19252,0.380315 -0.380315,0.765355 -0.563386,1.15039 -0.183071,0.386221 -0.361418,0.773623 -0.536221,1.16457 -0.173622,0.389764 -0.34252,0.784253 -0.507874,1.1811 -0.161811,0.388583 -0.317717,0.779528 -0.470079,1.17165 -0.152362,0.393307 -0.3,0.787796 -0.442914,1.18465 -0.142913,0.396851 -0.281103,0.794883 -0.415748,1.19528 -0.133465,0.400394 -0.261024,0.80315 -0.386221,1.20709 -0.124016,0.403937 -0.244488,0.809056 -0.359055,1.21654 -0.114567,0.407481 -0.223229,0.816142 -0.328347,1.22717 -0.105118,0.411024 -0.204331,0.823229 -0.3,1.23662 -0.0944883,0.414567 -0.185433,0.829134 -0.270473,1.24725 -0.0850394,0.416929 -0.164173,0.83504 -0.239764,1.25551 -0.0744095,0.419292 -0.144095,0.840946 -0.209055,1.26378 -0.0649607,0.422835 -0.124016,0.846851 -0.178347,1.27205 -0.0543308,0.425197 -0.102756,0.851575 -0.146457,1.27913 -0.0437008,0.427559 -0.0814961,0.8563 -0.114567,1.2874 -0.0330709,0.429922 -0.0602363,0.861024 -0.0826772,1.29331 -0.0212599,0.432284 -0.0377953,0.865749 -0.0496063,1.30039 -0.0106299,0.434646 -0.0165354,0.869292 -0.0165354,1.3063l0 1047.67c0,0.435827 0.00590552,0.871654 0.0165354,1.3063 0.0106299,0.434646 0.0271654,0.868111 0.0496063,1.30039 0.022441,0.432284 0.0496063,0.863386 0.0826772,1.29331 0.0330709,0.429922 0.0708662,0.858662 0.114567,1.2874 0.0437008,0.427559 0.0921261,0.853938 0.146457,1.27913 0.0543308,0.425197 0.113386,0.849213 0.178347,1.27205 0.0649607,0.422835 0.134646,0.843308 0.209055,1.26378 0.0744095,0.419292 0.154725,0.838583 0.239764,1.25551 0.0850394,0.416929 0.174803,0.831497 0.270473,1.24606 0.0944883,0.413386 0.194882,0.825591 0.3,1.23662 0.105118,0.411024 0.21378,0.819686 0.328347,1.22717 0.111024,0.39567 0.227953,0.788977 0.348425,1.1811l0.0106299 0.0354331 0 0.0011811 0.00944883 0.0283465c0.121654,0.394488 0.246851,0.786615 0.376772,1.17756 0.133465,0.400394 0.272835,0.798426 0.415748,1.19528 0.142913,0.39567 0.290551,0.791339 0.442914,1.18465 0.152362,0.392126 0.308268,0.78189 0.470079,1.17165 0.164173,0.39567 0.333071,0.790158 0.507874,1.1811 0.173622,0.390945 0.35315,0.779528 0.536221,1.16575 0.183071,0.386221 0.370866,0.770079 0.563386,1.15039 0.19252,0.380315 0.389764,0.758268 0.591733,1.13386 0.201969,0.375591 0.408662,0.747638 0.618898,1.1185 0.210236,0.369685 0.426378,0.737008 0.646063,1.10079 0.219685,0.36378 0.442914,0.725197 0.670867,1.08425 0.227953,0.359055 0.46063,0.714567 0.698032,1.06654 0.236221,0.351969 0.477166,0.700394 0.722835,1.04764 0.245669,0.346063 0.494882,0.689764 0.747638,1.02992 0.252756,0.340158 0.510237,0.676772 0.772442,1.01102 0.261024,0.334252 0.526772,0.66378 0.796064,0.992127 0.269292,0.327166 0.542126,0.649607 0.819686,0.970867 0.277559,0.320079 0.558662,0.637796 0.843308,0.951969 0.284646,0.312992 0.571654,0.623623 0.864568,0.930709 0.291733,0.307087 0.588189,0.609449 0.88819,0.90945l1135.88 1135.88 0.920079 0.897638 0.940158 0.876379 0.960237 0.851575 0.979135 0.827953 0.999213 0.804331 1.01811 0.778347 1.03583 0.754725 1.05354 0.72756 1.07126 0.702756 1.0878 0.675591 1.10433 0.648426 1.11969 0.62126 1.13622 0.594095 1.15039 0.564567 1.16575 0.536221 1.17992 0.506693 1.17284 0.47126 1.18465 0.442914 1.19646 0.415748 1.20709 0.387402 1.21772 0.357874 1.22717 0.329528 1.23662 0.3 1.24606 0.269292 1.25551 0.239764 1.2626 0.209055 1.27205 0.177165 1.27913 0.146457 1.28504 0.114567 1.29331 0.0826772 1.29803 0.0496063 1.30512 0.0165354 821.763 0 1.30394 -0.0165354 1.29921 -0.0496063 1.29213 -0.0826772 1.28622 -0.114567 1.27913 -0.146457 1.27087 -0.177165 1.26378 -0.209055 1.25433 -0.239764 1.24725 -0.269292 1.23662 -0.3 1.22717 -0.329528 1.21772 -0.357874 1.20709 -0.387402 1.19646 -0.415748 1.18465 -0.442914 1.17284 -0.47126 1.17992 -0.506693 1.16457 -0.536221 1.15158 -0.564567 1.13504 -0.594095 1.12087 -0.62126 1.10433 -0.648426 1.0878 -0.675591 1.07126 -0.702756 1.05354 -0.72756 1.03583 -0.754725 1.01811 -0.778347 0.999213 -0.804331 0.979135 -0.827953 0.960237 -0.851575 0.940158 -0.876379 0.920079 -0.897638 0.887009 -0.90945 0.865749 -0.930709 0.843308 -0.951969 0.819686 -0.970867 0.796064 -0.992127 0.77126 -1.01102 0.747638 -1.02992 0.722835 -1.04764 0.698032 -1.06654 0.670867 -1.08425 0.646063 -1.10079 0.618898 -1.1185 0.591733 -1.13386 0.563386 -1.15039 0.536221 -1.16575 0.507874 -1.1811 0.470079 -1.17165 0.444095 -1.18465 0.414567 -1.19528 0.387402 -1.20591 0.357874 -1.21772 0.329528 -1.22717 0.3 -1.23662 0.270473 -1.24606 0.239764 -1.25551 0.209055 -1.26378 0.178347 -1.27205 0.146457 -1.27913 0.114567 -1.2874 0.0826772 -1.29331 0.0496063 -1.30039 0.0165354 -1.3063 0 -1047.67 -0.0165354 -1.3063 -0.0496063 -1.30039 -0.0826772 -1.29331 -0.114567 -1.2874 -0.146457 -1.27913 -0.178347 -1.27205 -0.209055 -1.26378 -0.239764 -1.25551 -0.270473 -1.24725 -0.3 -1.23662 -0.329528 -1.22717 -0.357874 -1.21654 -0.387402 -1.20709 -0.414567 -1.19528 -0.444095 -1.18465 -0.470079 -1.17165 -0.507874 -1.1811 -0.536221 -1.16457 -0.563386 -1.15039 -0.591733 -1.13504 -0.618898 -1.11732 -0.646063 -1.10197 -0.670867 -1.08307 -0.698032 -1.06654 -0.722835 -1.04882 -0.747638 -1.02992 -0.77126 -1.01102 -0.796064 -0.990946 -0.819686 -0.972048 -0.843308 -0.950788 -0.865749 -0.930709 -1993.82 -1151.53 857.107 14.7969m-858.681 -15.4347l1967.67 1136.15c12.9165,7.4563 24.7146,14.6032 26.837,15.1063l-1135.77 -1135.77 -0.0578741 -0.0578741 -0.056693 -0.056693 -0.920079 -0.897638 -0.940158 -0.876379 -0.960237 -0.851575 -0.979135 -0.827953 -0.999213 -0.804331 -1.01811 -0.778347 -1.03583 -0.754725 -0.96378 -0.666142 -0.0897638 -0.0614174 0 -0.0011811 -0.0897638 -0.0578741 -0.981497 -0.643701 -1.0878 -0.675591 -1.10433 -0.649607 -1.12087 -0.62126 -1.13504 -0.592914 -1.15158 -0.565748 -1.16457 -0.536221 -1.17992 -0.506693 -1.17284 -0.47126 -1.18465 -0.442914 -1.19646 -0.414567 -1.20709 -0.387402 -1.21772 -0.357874 -1.22717 -0.329528 -1.23662 -0.3 -1.24725 -0.269292 -1.25433 -0.239764 -1.26378 -0.209055 -1.27087 -0.177165 -1.27913 -0.146457 -1.28622 -0.114567 -1.29213 -0.0826772 -1.29921 -0.0496063 -1.30394 -0.0165354 -821.763 0z"/>
   </g>
  </g>
  <path class="fil2" d="M1024 -0.0011811c565.541,0 1024,458.461 1024,1024 0,565.541 -458.461,1024 -1024,1024 -565.541,0 -1024,-458.461 -1024,-1024 0,-565.541 458.461,-1024 1024,-1024z"/>
  <g id="_459273896">
   <path id="_459246992" class="fil3" d="M613.119 448l821.763 0c6.97205,0 13.715,1.42559 19.9394,4.00866 6.32717,2.62559 12.0721,6.51851 16.9217,11.3693 4.79174,4.79292 8.65631,10.5083 11.2866,16.8437 2.58189,6.21969 4.01103,12.9614 4.01103,19.9441l0 1047.67c0,6.98268 -1.42913,13.7232 -4.01103,19.9429 -2.63032,6.33662 -6.49489,12.0508 -11.2866,16.8449 -4.84961,4.85079 -10.5945,8.74371 -16.9217,11.3681 -6.22441,2.58425 -12.9673,4.00985 -19.9394,4.00985l-821.763 0c-6.97323,0 -13.715,-1.42559 -19.9394,-4.00985 -6.32835,-2.62441 -12.0721,-6.51733 -16.9217,-11.3681 -4.79292,-4.7941 -8.65749,-10.5083 -11.2878,-16.8449 -2.58071,-6.21969 -4.00985,-12.9602 -4.00985,-19.9429l0 -1047.67c0,-6.98268 1.42913,-13.7244 4.00985,-19.9441 2.63032,-6.33544 6.49489,-12.0508 11.2878,-16.8437 4.84961,-4.85079 10.5933,-8.74371 16.9217,-11.3693 6.22441,-2.58307 12.9662,-4.00866 19.9394,-4.00866z"/>
   <polygon id="_459266960" class="fil4" points="630.034,536.493 1406.18,536.493 1406.18,1428.65 630.034,1428.65 "/>
   <polygon id="_459270104" class="fil5" points="638.628,548.324 1397.59,548.324 1397.59,1428.33 638.628,1428.33 "/>
   <polygon id="_459268328" class="fil5" points="720.648,548.005 721.459,548.005 1398.05,548.005 1398.05,1428.33 1071.65,1428.33 1071.62,1428.33 "/>
   <polygon id="_459267248" class="fil6" points="638.165,548.005 720.648,548.005 1071.62,1428.33 638.165,1428.33 "/>
   <rect id="_459254216" class="fil7" x="965.361" y="489.585" width="117.277" height="13.1055" rx="6.55276" ry="6.55276"/>
   <path id="_459269000" class="fil7" d="M1024 1455.65c6.73111,0 13.2508,1.3689 19.2862,3.86221 6.19725,2.56063 11.7721,6.313 16.4339,10.9878 4.62048,4.63583 8.36221,10.2095 10.9347,16.4421 2.48858,6.03308 3.86457,12.5599 3.86457,19.3217 0,6.78308 -1.37599,13.3205 -3.86693,19.3406 -2.54646,6.15 -6.28583,11.7012 -10.9323,16.3618 -4.68662,4.70079 -10.2508,8.4756 -16.3996,11.0327 -6.00827,2.49803 -12.5386,3.87874 -19.3205,3.87874 -6.78189,0 -13.3122,-1.38071 -19.3205,-3.87874 -6.14882,-2.55709 -11.713,-6.33189 -16.3996,-11.0327 -4.64646,-4.66063 -8.38583,-10.2118 -10.9323,-16.3618 -2.49095,-6.02008 -3.86693,-12.5575 -3.86693,-19.3406 0,-6.76182 1.37599,-13.2886 3.86457,-19.3217 2.57244,-6.23268 6.31418,-11.8063 10.9347,-16.4421 4.66181,-4.67481 10.2366,-8.42717 16.4339,-10.9878 6.03544,-2.49331 12.5551,-3.86221 19.2862,-3.86221z"/>
   <path id="_459276992" class="fil8" d="M1024 1465.34c5.44252,0 10.715,1.10669 15.5953,3.12284 5.01142,2.07047 9.51851,5.10473 13.2886,8.88544 3.73701,3.74764 6.76182,8.25473 8.84174,13.2957 2.01378,4.87796 3.1252,10.1563 3.1252,15.6236 0,5.48504 -1.1126,10.7717 -3.12638,15.639 -2.05866,4.97363 -5.08347,9.46182 -8.84056,13.2307 -3.78898,3.80079 -8.28898,6.85394 -13.2602,8.92087 -4.85906,2.02087 -10.1398,3.13701 -15.6236,3.13701 -5.48386,0 -10.7646,-1.11614 -15.6236,-3.13701 -4.97126,-2.06693 -9.47127,-5.12008 -13.2602,-8.92087 -3.75709,-3.7689 -6.78189,-8.25709 -8.83938,-13.2307 -2.01496,-4.86733 -3.12756,-10.1539 -3.12756,-15.639 0,-5.46733 1.1126,-10.7457 3.1252,-15.6236 2.07992,-5.04095 5.10473,-9.54804 8.84174,-13.2957 3.77008,-3.78071 8.27717,-6.81497 13.2886,-8.88544 4.88032,-2.01614 10.1528,-3.12284 15.5953,-3.12284z"/>
  </g>
 </g>
</svg>
